<svg xmlns="http://www.w3.org/2000/svg" viewBox="0 0 64 64">
    <title>Cash Money</title>
    <g id="Cash_Money" data-name="Cash Money">
        <path
            d="M30.29,48H17a1,1,0,0,1-1-1,3,3,0,0,0-3-3,1,1,0,0,1-1-1V31a1,1,0,0,1,1-1,3,3,0,0,0,3-3,1,1,0,0,1,1-1H47a1,1,0,0,1,1,1,3,3,0,0,0,3,3,1,1,0,0,1,1,1v5a1,1,0,0,1-1,1H43v3a1,1,0,0,1,0,2v2.11a1,1,0,0,1-1.72.7,6.07,6.07,0,0,0-6.52-1.38l-.23.09a6,6,0,0,0-3.28,3.76A1,1,0,0,1,30.29,48ZM17.9,46H29.58a8,8,0,0,1,4.24-4.35l.25-.1a8.2,8.2,0,0,1,6.93.53V42a2,2,0,0,1,.27-1A2,2,0,0,1,41,40V37a2,2,0,0,1,2-2h7V31.9A5,5,0,0,1,46.1,28H17.9A5,5,0,0,1,14,31.9V42.1A5,5,0,0,1,17.9,46Z"
            fill="#85bb65" />
        <path
            d="M32,44a7,7,0,1,1,2.79-.58l-.26.1A6.74,6.74,0,0,1,32,44Zm0-12a5,5,0,0,0,0,10,4.79,4.79,0,0,0,1.84-.36l.23-.09A5,5,0,0,0,32,32Z"
            fill="#85bb65" />
        <path
            d="M30.68,53H12a5,5,0,0,1-5-5V26a5,5,0,0,1,5-5H52a4.17,4.17,0,0,1,.71.06A5,5,0,0,1,57,26V37a1,1,0,0,1-2,0H43v3a1,1,0,0,1,0,2v2.11a1,1,0,0,1-1.72.7,6.07,6.07,0,0,0-6.52-1.38l-.23.09a6,6,0,0,0-3.28,3.76A5.82,5.82,0,0,0,31,49a5.89,5.89,0,0,0,.58,2.56,1,1,0,0,1,0,1A1,1,0,0,1,30.68,53ZM12,23a3,3,0,0,0-3,3V48a3,3,0,0,0,3,3H29.25A7.83,7.83,0,0,1,29,49a7.93,7.93,0,0,1,.33-2.29,8,8,0,0,1,4.49-5.06l.25-.1a8.2,8.2,0,0,1,6.93.53V42a2,2,0,0,1,.27-1A2,2,0,0,1,41,40V37a2,2,0,0,1,2-2H55V26a3,3,0,0,0-2.6-3,2,2,0,0,0-.4,0Z"
            fill="#85bb65" />
        <path d="M56,43a1,1,0,0,1-1-1,1,1,0,0,1,0-2,1,1,0,0,1,2,0v2A1,1,0,0,1,56,43Z" fill="#85bb65" />
        <path d="M56,48a1,1,0,0,1-1-1,1,1,0,0,1,0-2,1,1,0,0,1,2,0v2A1,1,0,0,1,56,48Z" fill="#85bb65" />
        <path d="M20,39a2,2,0,1,1,2-2A2,2,0,0,1,20,39Zm0-2h0Zm0,0h0Zm0,0h0Zm0,0h0Zm0,0h0Zm0,0h0Zm0,0h0Zm0,0h0Z"
            fill="#85bb65" />
        <path
            d="M52.53,23a.55.55,0,0,1-.18,0A2,2,0,0,0,52,23H46.74a1,1,0,0,1-.87-.5L43,17.58a5,5,0,0,1-5.33-1.42L26.09,22.87a1.06,1.06,0,0,1-.5.13h-10a1,1,0,0,1-1-.74,1,1,0,0,1,.47-1.13l24.23-14A5,5,0,0,1,46.15,9L53.4,21.54a1,1,0,0,1-.87,1.5Zm-5.21-2h3.46L44.41,10a3,3,0,0,0-4.09-1.09L19.32,21h6l12.17-7a1,1,0,0,1,.76-.1,1,1,0,0,1,.61.47A3,3,0,0,0,43,15.44a1,1,0,0,1,.76-.11,1.06,1.06,0,0,1,.61.47Z"
            fill="#85bb65" />
        <path
            d="M46.74,23H25.59a1,1,0,0,1-1-.74,1,1,0,0,1,.47-1.13L37.49,14a1,1,0,0,1,.76-.1,1,1,0,0,1,.61.47A3,3,0,0,0,43,15.44a1,1,0,0,1,.76-.11,1.06,1.06,0,0,1,.61.47l3.29,5.7a1,1,0,0,1,0,1A1,1,0,0,1,46.74,23ZM29.32,21H45l-2-3.42a5,5,0,0,1-5.33-1.42Z"
            fill="#85bb65" />
        <path
            d="M37,57a7.91,7.91,0,0,1-7.22-4.57A7.77,7.77,0,0,1,29,49a7.93,7.93,0,0,1,.33-2.29,8,8,0,0,1,4.49-5.06l.25-.1a8,8,0,0,1,8.65,1.86,7.52,7.52,0,0,1,1.5,2.16,5.81,5.81,0,0,1,.45,1.16A7.69,7.69,0,0,1,45,49a7.93,7.93,0,0,1-.33,2.29,6.22,6.22,0,0,1-.46,1.16,7.49,7.49,0,0,1-1.5,2.15A8,8,0,0,1,37,57Zm0-14a6,6,0,0,0-2.24.43l-.23.09a6,6,0,0,0-3.28,3.76A5.82,5.82,0,0,0,31,49a6,6,0,0,0,6,6,6,6,0,0,0,4.28-1.81,5.64,5.64,0,0,0,1.14-1.62,5.21,5.21,0,0,0,.33-.84A5.94,5.94,0,0,0,43,49a5.71,5.71,0,0,0-.25-1.71,4.7,4.7,0,0,0-.32-.84,5.67,5.67,0,0,0-1.14-1.63A6,6,0,0,0,37,43Z"
            fill="#85bb65" />
        <path
            d="M55,57H43a2,2,0,0,1-2-2V53.89a1.05,1.05,0,0,1,.29-.71,5.62,5.62,0,0,0,1.13-1.61,5.21,5.21,0,0,0,.33-.84,1,1,0,0,1,1-.73H55a2,2,0,0,1,2,2v3A2,2,0,0,1,55,57ZM43,54.29V55H55V52H44.42a4.54,4.54,0,0,1-.21.45A7.51,7.51,0,0,1,43,54.29ZM55,52h0Z"
            fill="#85bb65" />
        <path
            d="M55,52H43.71a1,1,0,0,1-.8-.4,1,1,0,0,1-.16-.89,6,6,0,0,0,0-3.42,4.7,4.7,0,0,0-.32-.84A1,1,0,0,1,43.32,45H55a2,2,0,0,1,2,2v3A2,2,0,0,1,55,52ZM44.94,50H55V47H44.75A7.77,7.77,0,0,1,45,49,8.26,8.26,0,0,1,44.94,50ZM55,47h0Z"
            fill="#85bb65" />
        <path
            d="M55,47H43.32a1,1,0,0,1-.9-.57,5.62,5.62,0,0,0-1.13-1.61,1,1,0,0,1-.29-.71V42a2,2,0,0,1,2-2H55a2,2,0,0,1,2,2v3A2,2,0,0,1,55,47ZM43.93,45H55V42H43v1.71A8.45,8.45,0,0,1,43.93,45ZM55,42h0Z"
            fill="#85bb65" />
        <path d="M55,42H43a2,2,0,0,1-2-2V37a2,2,0,0,1,2-2H55a2,2,0,0,1,2,2v3A2,2,0,0,1,55,42ZM43,37v3H55V37Zm12,0h0Z"
            fill="#85bb65" />
        <path
            d="M37.5,53H35a1,1,0,0,1,0-2h2.5a.5.5,0,0,0,0-1h-1a2.5,2.5,0,0,1,0-5H39a1,1,0,0,1,0,2H36.5a.5.5,0,0,0,0,1h1a2.5,2.5,0,0,1,0,5Z"
            fill="#85bb65" />
        <path d="M37,47a1,1,0,0,1-1-1V45a1,1,0,0,1,2,0v1A1,1,0,0,1,37,47Z" fill="#85bb65" />
        <path d="M37,54a1,1,0,0,1-1-1V52a1,1,0,0,1,2,0v1A1,1,0,0,1,37,54Z" fill="#85bb65" />
    </g>
</svg>