<svg xmlns="http://www.w3.org/2000/svg" xmlns:xlink="http://www.w3.org/1999/xlink" width="500" zoomAndPan="magnify" viewBox="0 0 375 374.999991" height="500" preserveAspectRatio="xMidYMid meet" version="1.0"><defs><g/><clipPath id="773345e579"><path d="M 187.5 0 C 83.945312 0 0 83.945312 0 187.5 C 0 291.054688 83.945312 375 187.5 375 C 291.054688 375 375 291.054688 375 187.5 C 375 83.945312 291.054688 0 187.5 0 " clip-rule="nonzero"/></clipPath><clipPath id="44f6e2d5d9"><path d="M 187.5 375 C 137.441406 375 90.304688 355.515625 54.929688 320.070312 C 19.484375 284.695312 0 237.558594 0 187.5 C 0 137.441406 19.484375 90.304688 54.929688 54.929688 C 90.304688 19.484375 137.441406 0 187.5 0 C 237.558594 0 284.695312 19.484375 320.070312 54.929688 C 355.515625 90.378906 375 137.441406 375 187.5 C 375 237.558594 355.515625 284.695312 320.070312 320.070312 C 284.695312 355.515625 237.558594 375 187.5 375 Z M 187.5 11.242188 C 140.4375 11.242188 96.148438 29.601562 62.875 62.875 C 29.601562 96.148438 11.242188 140.4375 11.242188 187.5 C 11.242188 234.5625 29.601562 278.851562 62.875 312.125 C 96.148438 345.398438 140.4375 363.757812 187.5 363.757812 C 234.5625 363.757812 278.851562 345.398438 312.125 312.125 C 345.398438 278.851562 363.757812 234.5625 363.757812 187.5 C 363.757812 140.4375 345.398438 96.148438 312.125 62.875 C 278.851562 29.601562 234.5625 11.242188 187.5 11.242188 Z M 187.5 11.242188 " clip-rule="nonzero"/></clipPath><clipPath id="42fc37260c"><path d="M 170 277 L 206 277 L 206 302.65625 L 170 302.65625 Z M 170 277 " clip-rule="nonzero"/></clipPath><clipPath id="6694fd6b0d"><path d="M 72.40625 72.40625 L 302.65625 72.40625 L 302.65625 299 L 72.40625 299 Z M 72.40625 72.40625 " clip-rule="nonzero"/></clipPath><clipPath id="0eb82c9438"><path d="M 322.628906 185.082031 L 339.941406 185.082031 L 339.941406 202.394531 L 322.628906 202.394531 Z M 322.628906 185.082031 " clip-rule="nonzero"/></clipPath><clipPath id="cdda80cf8c"><path d="M 331.285156 185.082031 C 326.503906 185.082031 322.628906 188.957031 322.628906 193.738281 C 322.628906 198.519531 326.503906 202.394531 331.285156 202.394531 C 336.066406 202.394531 339.941406 198.519531 339.941406 193.738281 C 339.941406 188.957031 336.066406 185.082031 331.285156 185.082031 " clip-rule="nonzero"/></clipPath><clipPath id="38d6dfae7b"><path d="M 35.058594 187.5 L 52.371094 187.5 L 52.371094 204.8125 L 35.058594 204.8125 Z M 35.058594 187.5 " clip-rule="nonzero"/></clipPath><clipPath id="dbe7cca857"><path d="M 43.714844 187.5 C 38.933594 187.5 35.058594 191.375 35.058594 196.15625 C 35.058594 200.9375 38.933594 204.8125 43.714844 204.8125 C 48.496094 204.8125 52.371094 200.9375 52.371094 196.15625 C 52.371094 191.375 48.496094 187.5 43.714844 187.5 " clip-rule="nonzero"/></clipPath></defs><g clip-path="url(#773345e579)"><rect x="-37.5" width="450" fill="#ffffff" y="-37.499999" height="449.999989" fill-opacity="1"/></g><g clip-path="url(#44f6e2d5d9)"><path fill="#100f0d" d="M 0 0 L 374.699219 0 L 374.699219 374.699219 L 0 374.699219 Z M 0 0 " fill-opacity="1" fill-rule="nonzero"/></g><path fill="#1a1a1a" d="M 187.5 106.976562 C 143.097656 106.976562 106.976562 143.101562 106.976562 187.5 C 106.976562 221.457031 128.113281 250.554688 157.914062 262.371094 L 159.261719 209.332031 C 151.042969 205.285156 144.945312 190.535156 144.945312 172.953125 C 144.945312 152.257812 153.394531 135.476562 163.8125 135.476562 C 174.234375 135.476562 182.679688 152.257812 182.683594 172.953125 C 182.683594 190.535156 176.589844 205.285156 168.367188 209.332031 L 169.808594 266.042969 C 175.503906 267.328125 181.421875 268.027344 187.5 268.027344 C 193.878906 268.027344 200.082031 267.257812 206.035156 265.851562 L 206.632812 242.289062 C 198.414062 238.242188 192.320312 223.496094 192.320312 205.914062 L 192.320312 174.1875 C 192.320312 173.285156 192.785156 172.4375 193.578125 172.003906 C 194.1875 171.667969 194.9375 171.355469 195.78125 171.066406 C 197.40625 170.507812 199.09375 171.742188 199.09375 173.460938 L 199.09375 217.707031 C 199.09375 218.621094 200.136719 219.359375 201.425781 219.359375 C 202.714844 219.359375 203.761719 218.617188 203.761719 217.703125 L 203.761719 171.394531 C 203.761719 170.128906 204.703125 169.058594 205.957031 168.894531 L 206.011719 168.886719 C 207.519531 168.6875 208.855469 169.863281 208.855469 171.386719 L 208.855469 217.707031 C 208.855469 218.621094 209.898438 219.359375 211.1875 219.359375 C 212.476562 219.359375 213.519531 218.617188 213.519531 217.703125 L 213.519531 171.253906 C 213.519531 169.773438 214.78125 168.613281 216.257812 168.742188 L 216.308594 168.746094 C 217.609375 168.859375 218.613281 169.953125 218.613281 171.257812 L 218.613281 217.707031 C 218.613281 218.621094 219.660156 219.359375 220.945312 219.359375 C 222.238281 219.359375 223.28125 218.617188 223.28125 217.703125 L 223.28125 172.589844 C 223.28125 170.976562 224.773438 169.78125 226.347656 170.125 C 227.070312 170.28125 227.722656 170.449219 228.289062 170.628906 C 229.339844 170.960938 230.054688 171.929688 230.054688 173.035156 L 230.054688 205.914062 C 230.054688 223.496094 223.960938 238.242188 215.742188 242.289062 L 216.257812 262.699219 C 246.496094 251.097656 268.027344 221.773438 268.027344 187.5 C 268.027344 143.101562 231.902344 106.976562 187.5 106.976562 " fill-opacity="1" fill-rule="nonzero"/><path fill="#1a1a1a" d="M 156.796875 196.140625 L 156.648438 150.164062 C 156.648438 150.164062 146.171875 180.238281 156.796875 196.140625 " fill-opacity="1" fill-rule="nonzero"/><g clip-path="url(#42fc37260c)"><path fill="#656263" d="M 205.734375 277.828125 C 199.835938 279.019531 193.742188 279.648438 187.5 279.648438 C 181.554688 279.648438 175.746094 279.0625 170.109375 277.980469 L 170.703125 301.390625 C 176.1875 302.195312 181.796875 302.617188 187.5 302.617188 C 193.496094 302.617188 199.386719 302.15625 205.140625 301.273438 L 205.734375 277.828125 " fill-opacity="1" fill-rule="nonzero"/></g><g clip-path="url(#6694fd6b0d)"><path fill="#656263" d="M 187.5 72.386719 C 123.925781 72.386719 72.386719 123.925781 72.386719 187.5 C 72.386719 240.515625 108.226562 285.152344 157 298.523438 L 157.605469 274.644531 C 121.429688 262.195312 95.355469 227.847656 95.355469 187.5 C 95.355469 136.691406 136.691406 95.355469 187.5 95.355469 C 238.3125 95.355469 279.648438 136.691406 279.648438 187.5 C 279.648438 228.15625 253.171875 262.722656 216.566406 274.921875 L 217.171875 298.746094 C 266.367188 285.660156 302.617188 240.816406 302.617188 187.5 C 302.617188 123.925781 251.078125 72.386719 187.5 72.386719 " fill-opacity="1" fill-rule="nonzero"/></g><g clip-path="url(#0eb82c9438)"><g clip-path="url(#cdda80cf8c)"><path fill="#231f20" d="M 322.628906 185.082031 L 339.941406 185.082031 L 339.941406 202.394531 L 322.628906 202.394531 Z M 322.628906 185.082031 " fill-opacity="1" fill-rule="nonzero"/></g></g><g clip-path="url(#38d6dfae7b)"><g clip-path="url(#dbe7cca857)"><path fill="#231f20" d="M 35.058594 187.5 L 52.371094 187.5 L 52.371094 204.8125 L 35.058594 204.8125 Z M 35.058594 187.5 " fill-opacity="1" fill-rule="nonzero"/></g></g><g fill="#000000" fill-opacity="1"><g transform="translate(74.652658, 104.790667)"><g><path d="M 0.5 -0.4375 L 0.21875 -0.75 L -4.25 -30.1875 C -5.8125 -29.457031 -7.117188 -28.628906 -8.171875 -27.703125 L -13.796875 -21.0625 L -15.96875 -22.890625 L -1.203125 -35.8125 L -0.9375 -35.5 L 3.53125 -5.3125 L 14.09375 -16.078125 L 16.265625 -14.234375 Z M 0.5 -0.4375 "/></g></g></g><g fill="#000000" fill-opacity="1"><g transform="translate(97.205444, 85.571484)"><g><path d="M 7.40625 -36.1875 L 15.84375 -21.421875 C 17.132812 -19.160156 17.863281 -17.320312 18.03125 -15.90625 C 18.09375 -15.269531 18.070312 -14.5 17.96875 -13.59375 C 17.875 -12.6875 17.617188 -11.859375 17.203125 -11.109375 C 16.140625 -9.265625 14.40625 -7.65625 12 -6.28125 C 5.976562 -2.84375 1.195312 -4.21875 -2.34375 -10.40625 L -11.046875 -25.640625 L -7.328125 -27.765625 L 1.546875 -12.234375 C 1.953125 -11.523438 2.289062 -10.957031 2.5625 -10.53125 C 2.84375 -10.113281 3.320312 -9.570312 4 -8.90625 C 4.6875 -8.238281 5.367188 -7.773438 6.046875 -7.515625 C 6.734375 -7.265625 7.613281 -7.191406 8.6875 -7.296875 C 9.769531 -7.398438 10.90625 -7.789062 12.09375 -8.46875 C 16.632812 -11.0625 17.519531 -14.78125 14.75 -19.625 L 5.8125 -35.265625 Z M 7.40625 -36.1875 "/></g></g></g><g fill="#000000" fill-opacity="1"><g transform="translate(126.254459, 69.673779)"><g><path d="M 3.4375 -15.03125 L 7.5 -2.421875 L 3.578125 -1.15625 L -4.9375 -27.546875 L 3.6875 -30.328125 C 6.375 -31.191406 8.769531 -31.300781 10.875 -30.65625 C 12.976562 -30.019531 14.34375 -28.722656 14.96875 -26.765625 C 15.601562 -24.816406 15.414062 -23.054688 14.40625 -21.484375 C 13.394531 -19.910156 11.785156 -18.535156 9.578125 -17.359375 L 24.453125 -7.875 L 20.015625 -5.828125 L 6.515625 -16.015625 Z M 3.046875 -16.21875 L 5.59375 -17.03125 C 10.382812 -18.582031 12.171875 -21.25 10.953125 -25.03125 C 10.753906 -25.664062 10.363281 -26.332031 9.78125 -27.03125 C 8.632812 -28.507812 6.976562 -29.1875 4.8125 -29.0625 C 3 -28.476562 1.289062 -27.679688 -0.3125 -26.671875 Z M 3.046875 -16.21875 "/></g></g></g><g fill="#000000" fill-opacity="1"><g transform="translate(157.912163, 60.65185)"><g/></g></g><g fill="#000000" fill-opacity="1"><g transform="translate(174.422649, 57.924957)"><g><path d="M 3.765625 0.015625 L 3.890625 -27.71875 L 11.8125 -27.6875 C 15.03125 -27.664062 17.582031 -27.109375 19.46875 -26.015625 C 21.363281 -24.921875 22.304688 -23.285156 22.296875 -21.109375 C 22.285156 -19.578125 21.738281 -18.242188 20.65625 -17.109375 C 19.582031 -15.984375 18.082031 -15.132812 16.15625 -14.5625 C 18.695312 -14.070312 20.613281 -13.203125 21.90625 -11.953125 C 23.195312 -10.703125 23.835938 -9.332031 23.828125 -7.84375 C 23.828125 -6.363281 23.445312 -5.101562 22.6875 -4.0625 C 21.9375 -3.019531 20.96875 -2.226562 19.78125 -1.6875 C 17.40625 -0.519531 14.972656 0.0546875 12.484375 0.046875 Z M 7.90625 -15.015625 L 10.921875 -15 C 13.460938 -14.988281 15.285156 -15.546875 16.390625 -16.671875 C 17.503906 -17.796875 18.066406 -19.210938 18.078125 -20.921875 C 18.078125 -22.066406 17.691406 -23.109375 16.921875 -24.046875 C 16.160156 -24.984375 14.984375 -25.691406 13.390625 -26.171875 C 11.492188 -26.179688 9.679688 -25.910156 7.953125 -25.359375 Z M 7.90625 -13.796875 L 7.859375 -1.859375 C 8.734375 -1.566406 10.109375 -1.414062 11.984375 -1.40625 C 13.859375 -1.40625 15.523438 -1.914062 16.984375 -2.9375 C 18.441406 -3.96875 19.175781 -5.40625 19.1875 -7.25 C 19.195312 -9.09375 18.40625 -10.640625 16.8125 -11.890625 C 15.226562 -13.140625 13.316406 -13.769531 11.078125 -13.78125 Z M 7.90625 -13.796875 "/></g></g></g><g fill="#000000" fill-opacity="1"><g transform="translate(207.52303, 59.189599)"><g><path d="M 12.078125 -26.109375 L 7.515625 1.25 L 3.71875 0.625 L 8.28125 -26.734375 Z M 12.078125 -26.109375 "/></g></g></g><g fill="#000000" fill-opacity="1"><g transform="translate(224.92897, 61.97701)"><g><path d="M 11.6875 -10.03125 L 7.453125 2.515625 L 3.5625 1.203125 L 12.4375 -25.078125 L 21.03125 -22.171875 C 23.707031 -21.265625 25.695312 -19.925781 27 -18.15625 C 28.300781 -16.394531 28.625 -14.539062 27.96875 -12.59375 C 27.3125 -10.65625 26.109375 -9.351562 24.359375 -8.6875 C 22.617188 -8.019531 20.507812 -7.867188 18.03125 -8.234375 L 24.328125 8.21875 L 19.546875 7.234375 L 14.765625 -8.984375 Z M 12.09375 -11.21875 L 14.640625 -10.359375 C 19.410156 -8.742188 22.429688 -9.816406 23.703125 -13.578125 C 23.921875 -14.210938 24 -14.984375 23.9375 -15.890625 C 23.90625 -17.765625 22.988281 -19.296875 21.1875 -20.484375 C 19.375 -21.097656 17.515625 -21.476562 15.609375 -21.625 Z M 12.09375 -11.21875 "/></g></g></g><g fill="#000000" fill-opacity="1"><g transform="translate(255.405342, 72.945665)"><g><path d="M 6.953125 4.046875 L 3.25 1.890625 L 17.21875 -22.078125 L 20.921875 -19.921875 L 14.046875 -8.109375 L 32.109375 -13.390625 L 34.5 -12 L 16.65625 -7.453125 L 22.046875 12.84375 L 17.140625 10.609375 L 13.828125 -7.75 Z M 6.953125 4.046875 "/></g></g></g><g fill="#000000" fill-opacity="1"><g transform="translate(282.105903, 89.25597)"><g><path d="M 2.828125 2.484375 L 21.109375 -18.359375 L 33.75 -7.28125 L 31.59375 -5.453125 L 26.59375 -11.5625 C 25.5625 -12.46875 24.269531 -13.285156 22.71875 -14.015625 L 16.015625 -6.359375 L 23.015625 -0.234375 L 21.953125 0.953125 L 14.953125 -5.171875 L 6.890625 4.03125 L 17.515625 11.625 L 15.34375 13.453125 Z M 2.828125 2.484375 "/></g></g></g><g fill="#000000" fill-opacity="1"><g transform="translate(75.021406, 307.278461)"><g><path d="M 11.875 2.40625 L 23.46875 -5.859375 L 25.734375 -4.5 L 17.78125 10.640625 L 15.515625 9.296875 L 22.46875 -3.65625 L 22.375 -3.71875 L 9.25 5.546875 L 8.9375 5.359375 L 10.703125 -10 L 10.625 -10.046875 L 2.78125 1.671875 L 1.8125 1.078125 L 11.40625 -13.078125 L 13.46875 -11.84375 Z M 11.875 2.40625 "/></g></g></g><g fill="#000000" fill-opacity="1"><g transform="translate(104.05837, 323.479919)"><g><path d="M 0.25 0.09375 L 13.96875 -13.15625 L 14.328125 -13.015625 L 14.765625 6.078125 L 12.171875 5 L 12.140625 -0.03125 L 5.0625 -2.9375 L 1.53125 0.625 Z M 5.796875 -3.703125 L 12.140625 -1.09375 L 12.15625 -10.125 Z M 5.796875 -3.703125 "/></g></g></g><g fill="#000000" fill-opacity="1"><g transform="translate(128.746048, 332.927862)"><g><path d="M 14.5625 -3.828125 L 17 -3.1875 L 15.28125 3.390625 C 13.695312 3.578125 11.898438 3.410156 9.890625 2.890625 C 7.441406 2.253906 5.5 1.0625 4.0625 -0.6875 C 3.375 -1.5625 2.90625 -2.597656 2.65625 -3.796875 C 2.414062 -4.992188 2.460938 -6.226562 2.796875 -7.5 C 3.128906 -8.78125 3.628906 -9.878906 4.296875 -10.796875 C 4.960938 -11.722656 5.707031 -12.445312 6.53125 -12.96875 C 7.351562 -13.488281 8.25 -13.878906 9.21875 -14.140625 C 11.03125 -14.617188 12.882812 -14.613281 14.78125 -14.125 C 15.507812 -13.925781 16.28125 -13.632812 17.09375 -13.25 C 17.90625 -12.863281 18.507812 -12.523438 18.90625 -12.234375 L 18.21875 -10.609375 C 16.21875 -12.140625 14.476562 -13.097656 13 -13.484375 C 11.195312 -13.492188 9.632812 -12.953125 8.3125 -11.859375 C 7 -10.765625 6.085938 -9.25 5.578125 -7.3125 C 4.953125 -4.863281 5.101562 -2.8125 6.03125 -1.15625 C 6.96875 0.488281 8.488281 1.585938 10.59375 2.140625 C 11.425781 2.359375 12.203125 2.472656 12.921875 2.484375 Z M 14.5625 -3.828125 "/></g></g></g><g fill="#000000" fill-opacity="1"><g transform="translate(155.814151, 339.248695)"><g><path d="M 2.3125 0.265625 L 4.25 -16.703125 L 9.09375 -16.15625 C 11.101562 -15.925781 12.867188 -15.285156 14.390625 -14.234375 C 15.210938 -13.691406 15.910156 -13.050781 16.484375 -12.3125 C 17.054688 -11.582031 17.476562 -10.675781 17.75 -9.59375 C 18.03125 -8.519531 18.101562 -7.351562 17.96875 -6.09375 C 17.757812 -4.28125 17.125 -2.800781 16.0625 -1.65625 C 14.15625 0.445312 11.347656 1.289062 7.640625 0.875 Z M 7.21875 -0.0625 C 9.394531 0.1875 11.210938 -0.25 12.671875 -1.375 C 14.128906 -2.507812 15.003906 -4.3125 15.296875 -6.78125 C 15.515625 -8.695312 15.175781 -10.394531 14.28125 -11.875 C 13.382812 -13.363281 12.132812 -14.421875 10.53125 -15.046875 C 9.050781 -15.222656 7.734375 -15.195312 6.578125 -14.96875 L 4.9375 -0.5625 C 5.46875 -0.34375 6.226562 -0.175781 7.21875 -0.0625 Z M 7.21875 -0.0625 "/></g></g></g><g fill="#000000" fill-opacity="1"><g transform="translate(184.150411, 341.674026)"><g><path d="M 2.328125 -0.046875 L 2 -17.125 L 12.34375 -17.328125 L 12.109375 -15.578125 L 7.296875 -16.296875 C 6.453125 -16.285156 5.53125 -16.117188 4.53125 -15.796875 L 4.640625 -9.53125 L 10.359375 -9.640625 L 10.390625 -8.671875 L 4.671875 -8.5625 L 4.8125 -1.015625 L 12.796875 -1.984375 L 12.5625 -0.25 Z M 2.328125 -0.046875 "/></g></g></g><g fill="#000000" fill-opacity="1"><g transform="translate(208.772533, 340.612906)"><g><path d="M 2.296875 -0.34375 L -0.21875 -17.234375 L 4.609375 -17.953125 C 6.554688 -18.242188 8.15625 -18.140625 9.40625 -17.640625 C 10.664062 -17.148438 11.394531 -16.242188 11.59375 -14.921875 C 11.726562 -13.992188 11.519531 -13.132812 10.96875 -12.34375 C 10.425781 -11.550781 9.59375 -10.890625 8.46875 -10.359375 C 10.050781 -10.304688 11.296875 -9.957031 12.203125 -9.3125 C 13.117188 -8.675781 13.644531 -7.90625 13.78125 -7 C 13.914062 -6.101562 13.800781 -5.300781 13.4375 -4.59375 C 13.070312 -3.882812 12.550781 -3.304688 11.875 -2.859375 C 10.539062 -1.929688 9.117188 -1.359375 7.609375 -1.140625 Z M 3.421875 -9.890625 L 5.25 -10.15625 C 6.800781 -10.382812 7.859375 -10.890625 8.421875 -11.671875 C 8.984375 -12.453125 9.1875 -13.363281 9.03125 -14.40625 C 8.925781 -15.101562 8.597656 -15.703125 8.046875 -16.203125 C 7.492188 -16.703125 6.710938 -17.03125 5.703125 -17.1875 C 4.554688 -17.019531 3.476562 -16.6875 2.46875 -16.1875 Z M 3.53125 -9.140625 L 4.609375 -1.859375 C 5.171875 -1.765625 6.019531 -1.800781 7.15625 -1.96875 C 8.300781 -2.144531 9.269531 -2.613281 10.0625 -3.375 C 10.851562 -4.132812 11.164062 -5.078125 11 -6.203125 C 10.832031 -7.328125 10.207031 -8.191406 9.125 -8.796875 C 8.039062 -9.410156 6.816406 -9.617188 5.453125 -9.421875 Z M 3.53125 -9.140625 "/></g></g></g><g fill="#000000" fill-opacity="1"><g transform="translate(235.185314, 335.988827)"><g><path d="M 9.65625 -20.59375 L 12.578125 -10.53125 C 13.023438 -8.988281 13.191406 -7.785156 13.078125 -6.921875 C 13.035156 -6.535156 12.914062 -6.070312 12.71875 -5.53125 C 12.53125 -5 12.257812 -4.539062 11.90625 -4.15625 C 11 -3.21875 9.726562 -2.507812 8.09375 -2.03125 C 4 -0.84375 1.335938 -2.351562 0.109375 -6.5625 L -2.90625 -16.953125 L -0.390625 -17.6875 L 2.6875 -7.109375 C 2.820312 -6.617188 2.941406 -6.226562 3.046875 -5.9375 C 3.160156 -5.65625 3.375 -5.257812 3.6875 -4.75 C 4 -4.25 4.335938 -3.875 4.703125 -3.625 C 5.066406 -3.375 5.582031 -3.203125 6.25 -3.109375 C 6.914062 -3.015625 7.65625 -3.085938 8.46875 -3.328125 C 11.550781 -4.222656 12.613281 -6.320312 11.65625 -9.625 L 8.5625 -20.28125 Z M 9.65625 -20.59375 "/></g></g></g><g fill="#000000" fill-opacity="1"><g transform="translate(261.044867, 327.735478)"><g><path d="M 1.109375 -9.421875 L 4.421875 -1.96875 L 2.125 -0.9375 L -4.796875 -16.546875 L 0.296875 -18.8125 C 1.878906 -19.519531 3.332031 -19.742188 4.65625 -19.484375 C 5.988281 -19.222656 6.910156 -18.515625 7.421875 -17.359375 C 7.929688 -16.210938 7.929688 -15.125 7.421875 -14.09375 C 6.910156 -13.0625 6.019531 -12.113281 4.75 -11.25 L 14.453125 -6.40625 L 11.859375 -4.875 L 2.9375 -10.234375 Z M 0.796875 -10.125 L 2.3125 -10.796875 C 5.144531 -12.046875 6.066406 -13.789062 5.078125 -16.03125 C 4.910156 -16.394531 4.625 -16.773438 4.21875 -17.171875 C 3.425781 -18.003906 2.367188 -18.316406 1.046875 -18.109375 C -0.0234375 -17.628906 -1.019531 -17.03125 -1.9375 -16.3125 Z M 0.796875 -10.125 "/></g></g></g><g fill="#000000" fill-opacity="1"><g transform="translate(285.14973, 316.321619)"><g><path d="M 7.28125 -13.171875 L 9.421875 -14.484375 L 13 -8.703125 C 12.0625 -7.429688 10.703125 -6.25 8.921875 -5.15625 C 6.773438 -3.820312 4.570312 -3.25 2.3125 -3.4375 C 1.195312 -3.53125 0.128906 -3.898438 -0.890625 -4.546875 C -1.921875 -5.203125 -2.785156 -6.09375 -3.484375 -7.21875 C -4.179688 -8.34375 -4.632812 -9.457031 -4.84375 -10.5625 C -5.050781 -11.675781 -5.054688 -12.707031 -4.859375 -13.65625 C -4.671875 -14.613281 -4.335938 -15.535156 -3.859375 -16.421875 C -2.953125 -18.078125 -1.664062 -19.421875 0 -20.453125 C 0.644531 -20.847656 1.382812 -21.203125 2.21875 -21.515625 C 3.0625 -21.835938 3.722656 -22.035156 4.203125 -22.109375 L 4.921875 -20.515625 C 2.421875 -20.128906 0.519531 -19.53125 -0.78125 -18.71875 C -2.019531 -17.414062 -2.703125 -15.910156 -2.828125 -14.203125 C -2.953125 -12.492188 -2.484375 -10.785156 -1.421875 -9.078125 C -0.0976562 -6.929688 1.484375 -5.625 3.328125 -5.15625 C 5.171875 -4.6875 7.015625 -5.023438 8.859375 -6.171875 C 9.585938 -6.628906 10.207031 -7.113281 10.71875 -7.625 Z M 7.28125 -13.171875 "/></g></g></g></svg>