<?xml version="1.0" standalone="no"?>
<!DOCTYPE svg PUBLIC "-//W3C//DTD SVG 20010904//EN"
 "http://www.w3.org/TR/2001/REC-SVG-20010904/DTD/svg10.dtd">
<svg version="1.0" xmlns="http://www.w3.org/2000/svg"
 width="700.000000pt" height="700.000000pt" viewBox="0 0 700.000000 700.000000"
 preserveAspectRatio="xMidYMid meet">
<metadata>
Created by potrace 1.14, written by Peter Selinger 2001-2017
</metadata>
<g transform="translate(0.000000,700.000000) scale(0.100000,-0.100000)"
fill="#000000" stroke="none">
<path d="M3220 6989 c-695 -56 -1358 -318 -1905 -755 -141 -113 -436 -408
-549 -549 -519 -651 -790 -1461 -763 -2285 26 -777 285 -1487 763 -2085 113
-142 408 -437 549 -549 432 -344 932 -580 1460 -690 277 -57 323 -61 725 -61
401 0 439 3 728 61 501 101 997 333 1432 670 143 110 457 422 574 569 342 429
580 933 690 1460 57 279 61 322 61 730 -1 412 -6 475 -71 763 -149 666 -477
1251 -975 1738 -539 526 -1201 853 -1944 958 -243 35 -534 44 -775 25z m690
-224 c576 -74 1102 -287 1565 -635 729 -547 1183 -1342 1297 -2270 17 -137 17
-583 0 -720 -114 -928 -566 -1720 -1297 -2270 -462 -348 -982 -558 -1573 -637
-160 -21 -607 -24 -762 -5 -815 100 -1527 462 -2063 1047 -478 523 -760 1142
-849 1865 -17 137 -17 582 0 720 75 614 283 1137 642 1615 545 726 1385 1206
2265 1294 61 6 126 13 145 15 81 9 513 -3 630 -19z"/>
<path d="M3330 6181 l0 -263 123 4 c100 3 129 8 162 25 56 29 77 56 82 106 4
36 1 48 -21 74 -14 17 -45 38 -68 48 l-43 17 37 19 c93 48 88 165 -9 206 -19
7 -86 17 -149 20 l-114 6 0 -262z m232 192 c32 -31 37 -77 13 -122 -17 -34
-59 -51 -127 -51 l-49 0 3 98 3 97 35 7 c53 9 91 0 122 -29z m-12 -220 c42
-26 60 -55 59 -98 0 -72 -44 -105 -141 -105 l-68 0 0 108 c0 60 3 112 8 116
11 12 114 -3 142 -21z"/>
<path d="M4026 6373 c-11 -39 -80 -482 -76 -487 3 -2 18 -6 35 -8 l29 -3 42
250 c30 180 38 252 30 257 -21 14 -55 8 -60 -9z"/>
<path d="M4392 6198 c-84 -240 -124 -370 -116 -378 5 -5 21 -12 35 -15 26 -6
28 -4 59 92 45 134 44 134 78 122 25 -8 31 -22 71 -159 30 -104 48 -151 60
-154 40 -11 71 -16 71 -12 0 2 -25 68 -55 147 -30 79 -55 146 -55 149 0 3 21
5 48 6 67 1 106 25 126 75 13 33 15 48 6 74 -11 34 -49 74 -89 95 -19 10 -188
70 -197 70 -1 0 -20 -51 -42 -112z m196 26 c77 -31 76 -150 -1 -187 -32 -16
-44 -17 -85 -8 -79 20 -78 17 -43 124 l32 96 32 -6 c18 -3 47 -12 65 -19z"/>
<path d="M2368 6248 c-54 -17 -98 -36 -98 -41 0 -10 150 -479 154 -485 7 -7
66 22 66 31 0 7 -16 60 -34 119 l-34 107 28 10 c27 9 38 3 156 -86 l127 -96
40 20 40 19 -94 61 c-52 33 -113 72 -137 87 l-44 27 35 27 c19 15 42 39 51 54
37 62 6 149 -61 167 -58 16 -89 13 -195 -21z m155 -28 c14 -11 31 -36 37 -54
21 -66 -9 -113 -97 -146 l-49 -19 -29 87 c-15 48 -30 93 -32 100 -6 16 72 51
113 52 17 0 43 -9 57 -20z"/>
<path d="M1930 6059 c0 -7 42 -84 92 -173 81 -140 93 -167 93 -208 0 -38 -5
-52 -30 -79 -61 -64 -143 -78 -192 -31 -16 15 -71 100 -122 189 l-92 163 -32
-16 c-18 -9 -34 -18 -36 -20 -6 -6 171 -308 198 -337 70 -76 170 -76 269 -1
73 56 92 136 51 217 -61 121 -173 307 -185 307 -8 0 -14 -5 -14 -11z"/>
<path d="M5076 6028 c-17 -28 -218 -374 -234 -405 -10 -19 -8 -23 22 -41 l33
-20 57 97 c31 53 60 102 64 109 6 8 19 -49 37 -150 16 -90 33 -168 39 -175 6
-7 27 -19 47 -27 l37 -15 -44 167 c-24 92 -47 176 -50 188 -5 20 5 24 138 57
79 20 154 40 167 45 l23 8 -24 11 c-19 8 -54 1 -188 -38 -90 -26 -165 -47
-166 -46 -1 1 26 50 61 109 70 117 69 106 8 142 -7 4 -18 -3 -27 -16z"/>
<path d="M1290 5642 c-42 -37 -102 -91 -135 -120 -57 -50 -59 -53 -41 -67 19
-14 25 -10 95 65 42 44 83 80 91 80 13 0 23 -48 54 -257 21 -142 40 -266 43
-276 3 -14 26 1 110 75 204 179 190 164 170 184 -16 18 -21 14 -116 -80 -81
-80 -100 -95 -104 -80 -3 11 -22 137 -43 282 -21 144 -40 262 -43 262 -3 -1
-40 -31 -81 -68z"/>
<path d="M5492 5485 c-89 -101 -163 -188 -164 -194 -4 -11 212 -201 228 -201
6 0 17 6 23 14 10 12 -5 26 -81 81 -51 36 -93 70 -93 75 0 4 31 44 69 89 78
92 61 91 154 8 34 -30 47 -36 55 -27 9 9 6 16 -13 32 -14 11 -42 36 -63 55
-44 39 -45 36 37 128 l45 50 33 -18 c18 -10 55 -44 82 -77 26 -33 51 -60 56
-60 4 0 13 7 20 16 15 18 20 12 -118 133 -51 45 -96 81 -101 81 -4 0 -80 -83
-169 -185z"/>
<path d="M3230 5629 c-645 -83 -1224 -460 -1566 -1019 -145 -239 -246 -522
-288 -811 -19 -124 -21 -431 -6 -559 60 -479 272 -914 615 -1255 240 -240 507
-407 819 -514 66 -22 121 -39 122 -38 0 1 4 100 8 220 6 202 5 218 -11 224
-67 22 -216 93 -292 138 -429 254 -713 652 -823 1156 -19 91 -22 133 -22 329
0 255 12 335 84 553 167 501 576 910 1077 1077 218 72 298 84 553 84 196 0
238 -3 330 -22 703 -152 1208 -657 1362 -1362 20 -92 22 -132 22 -330 0 -255
-13 -337 -84 -553 -159 -476 -536 -869 -1009 -1052 l-73 -29 4 -212 c2 -117 6
-215 10 -219 10 -10 236 69 350 123 378 179 704 472 924 832 153 252 257 553
294 855 14 115 14 395 0 511 -81 656 -454 1235 -1020 1580 -250 152 -553 257
-850 294 -98 12 -434 11 -530 -1z"/>
<path d="M3275 4986 c-495 -82 -908 -386 -1125 -831 -97 -198 -138 -365 -147
-595 -6 -173 4 -280 43 -433 105 -415 391 -769 782 -969 52 -26 101 -48 109
-48 9 0 13 16 13 58 0 31 5 252 11 491 12 422 11 434 -7 444 -41 22 -113 110
-148 183 -21 42 -49 120 -64 173 -24 89 -26 111 -26 311 0 202 2 221 27 315
101 377 338 500 511 265 92 -125 143 -300 152 -525 13 -304 -67 -564 -212
-695 l-50 -45 12 -470 c7 -258 13 -495 13 -526 l1 -56 104 -17 c58 -9 158 -16
223 -16 108 0 295 20 335 35 14 6 17 34 20 223 3 186 1 218 -12 226 -44 26
-115 115 -151 189 -83 175 -99 292 -99 741 0 391 -2 378 66 392 59 11 58 15
64 -460 l5 -431 35 0 35 0 5 451 c5 474 6 484 50 484 9 0 24 -8 33 -18 15 -16
17 -67 19 -468 l3 -449 30 -3 c55 -7 55 -9 55 473 0 330 3 444 12 453 16 16
53 15 67 -1 7 -10 12 -153 13 -468 l3 -454 31 -3 c17 -2 36 3 42 11 8 10 13
138 14 447 3 420 4 433 23 445 16 11 28 11 55 2 l35 -12 3 -385 c3 -414 -2
-489 -45 -625 -38 -123 -87 -207 -156 -271 l-60 -56 5 -179 c3 -99 8 -182 11
-185 9 -9 205 90 282 141 309 208 532 518 624 866 43 164 55 269 48 449 -9
230 -50 397 -147 595 -205 421 -580 714 -1043 816 -119 26 -413 35 -532 15z"/>
<path d="M2893 4085 c-72 -286 -70 -533 4 -683 l28 -57 2 115 c2 63 0 250 -5
415 l-7 300 -22 -90z"/>
<path d="M6102 3520 c-49 -30 -72 -75 -72 -144 0 -56 2 -61 44 -102 42 -43 45
-44 109 -44 56 0 70 4 97 26 42 36 60 74 60 131 0 91 -63 153 -155 153 -32 0
-62 -7 -83 -20z"/>
<path d="M755 3486 c-16 -8 -43 -28 -59 -45 -24 -25 -30 -42 -34 -91 -4 -52
-1 -66 21 -99 62 -93 203 -94 264 -2 31 46 32 130 1 179 -37 60 -127 87 -193
58z"/>
<path d="M3184 1596 c4 -116 10 -214 14 -218 22 -22 504 -25 602 -3 l28 6 4
212 c3 117 4 213 4 214 -1 1 -44 -5 -96 -13 -116 -17 -365 -17 -479 0 l-84 12
7 -210z"/>
<path d="M1526 1380 c-47 -72 -86 -133 -86 -136 0 -20 29 14 91 106 67 99 70
103 65 65 -13 -93 -28 -246 -25 -250 2 -2 58 34 124 81 65 46 121 84 123 84 2
0 -5 -15 -16 -32 -10 -18 -40 -72 -66 -120 -46 -86 -46 -87 -25 -98 11 -7 22
-10 24 -8 1 2 35 65 74 140 71 135 72 137 50 148 -23 13 -16 17 -177 -98 l-63
-45 5 34 c8 47 26 200 26 221 0 9 -8 22 -19 27 -16 9 -29 -6 -105 -119z"/>
<path d="M5341 1484 c-72 -36 -106 -88 -106 -164 0 -47 5 -63 28 -93 60 -79
146 -88 237 -26 27 19 52 40 55 47 6 16 -45 112 -60 112 -5 0 -16 -4 -24 -9
-12 -8 -8 -18 18 -60 18 -28 30 -54 27 -59 -11 -18 -74 -42 -109 -42 -63 0
-137 87 -137 160 0 62 53 120 109 120 23 0 37 18 24 31 -5 5 -30 -1 -62 -17z"/>
<path d="M4853 1223 c-35 -15 -63 -31 -63 -37 0 -6 27 -72 61 -147 52 -116 64
-136 80 -132 24 7 24 11 -6 79 -29 66 -30 73 -10 80 12 5 67 -23 161 -83 17
-11 24 -10 44 4 23 16 23 16 -65 60 l-87 44 21 23 c30 32 37 77 14 104 -28 35
-78 36 -150 5z m95 -19 c15 -10 22 -25 22 -48 0 -33 -15 -53 -58 -75 -21 -11
-24 -9 -48 46 l-26 57 22 18 c27 22 59 23 88 2z"/>
<path d="M2077 1085 c-84 -79 -125 -125 -117 -130 7 -4 25 6 44 24 18 17 37
31 43 31 6 0 36 -11 67 -25 l56 -25 0 -45 c0 -35 4 -47 21 -55 11 -7 23 -10
25 -7 3 2 1 83 -3 179 l-8 175 -128 -122z m91 -58 l-3 -44 -58 25 -58 25 58
59 58 59 3 -40 c2 -22 2 -60 0 -84z"/>
<path d="M4550 1107 c0 -2 13 -48 30 -103 38 -126 39 -166 4 -193 -33 -26 -95
-28 -117 -3 -8 9 -31 69 -50 132 -29 99 -36 115 -53 112 -10 -2 -21 -6 -23 -8
-6 -5 48 -191 66 -226 27 -56 88 -73 157 -44 43 18 66 51 66 96 0 47 -53 233
-68 238 -7 2 -12 2 -12 -1z"/>
<path d="M2581 1050 c-48 -12 -83 -40 -109 -91 -28 -52 -25 -116 5 -158 27
-35 98 -70 159 -77 l50 -6 17 61 c21 76 22 71 -7 71 -22 0 -26 -7 -37 -55 -14
-62 -25 -67 -86 -38 -110 52 -87 234 34 274 30 10 41 8 85 -15 59 -31 58 -30
58 -10 0 30 -108 58 -169 44z"/>
<path d="M2986 953 c-3 -15 -10 -73 -16 -128 -6 -55 -13 -114 -15 -132 l-6
-31 77 -7 c95 -9 142 4 183 50 27 31 31 43 31 93 0 92 -52 152 -145 167 -110
17 -103 18 -109 -12z m165 -42 c36 -36 39 -43 39 -95 0 -68 -19 -110 -60 -131
-31 -16 -115 -21 -124 -6 -3 4 1 61 9 127 8 65 15 124 15 131 0 9 14 13 41 13
35 0 48 -6 80 -39z"/>
<path d="M3935 971 c-32 -5 -40 -10 -38 -26 4 -33 34 -238 39 -268 6 -28 7
-28 57 -22 107 15 157 48 157 106 0 42 -26 69 -69 69 l-24 0 27 25 c26 24 34
67 18 91 -21 32 -73 39 -167 25z m108 -23 c47 -37 21 -104 -45 -114 l-36 -6
-9 53 c-11 61 0 79 47 79 14 0 34 -6 43 -12z m31 -149 c54 -42 16 -119 -59
-119 -33 0 -33 0 -42 63 -6 41 -5 65 2 69 20 15 73 8 99 -13z"/>
<path d="M3560 943 l-85 -4 3 -161 3 -161 92 8 c51 4 95 12 99 18 11 18 6 18
-68 8 -37 -6 -69 -9 -70 -8 -1 1 -4 32 -6 70 l-4 67 53 0 c29 0 53 5 53 10 0
6 -25 10 -55 10 l-55 0 0 59 c0 54 2 59 24 63 14 3 46 2 71 -2 25 -4 48 -3 51
2 6 10 -4 29 -14 26 -4 -1 -45 -4 -92 -5z"/>
</g>
</svg>
